<svg xmlns="http://www.w3.org/2000/svg" viewBox="0 0 348.25 165.09"><defs><style>.cls-1{fill:#fe6f34;}</style></defs><g id="Calque_2" data-name="Calque 2"><g id="Calque_1-2" data-name="Calque 1"><path class="cls-1" d="M348.05,114.25c0-7.55-3.71-25.7-3.92-26.49-2.91-11-10.59-15.78-19.38-4.9a9.38,9.38,0,0,1-1.56,1.46c-6.6,5-16-.19-15.92-8.44a24,24,0,0,1,.78-5.82,10,10,0,0,1,9.73-7.23c3.53,0,6.39-.19,5.78-6.71,0-5.44.05-9.57-7.77-10.55-5.31-1.06-8.34-2-9.06-2.89s-1.1-14.09-1.1-15.68c1.17-7.24,8.77-6.08,13.54-1.4l4.68,5a9.65,9.65,0,0,0,2.7,2c15.63,7.73,11.31-18.09,4.9-24.56-.39-.39-.73-.82-1.12-1.21-5.47-5.32-21.38-5-21.91-5-12.38.15-27-1.35-36.92,6.41a10,10,0,0,0-3.78,7.12c-.23,3.07.29,4.34,2.22,10.56a10.87,10.87,0,0,0,1.25,2.62c11.1,17,10.17,33.81,5.46,50.85,6.29,22.87,3.53,50.37-7.92,69.17-.72,1.18-1.48,2.32-2.27,3.43,4.23,4.46,10.91,7.64,20.75,9.16C327.37,166.35,350.66,163.57,348.05,114.25Z"/><path class="cls-1" d="M262.29,69.75c-5.42-12.76-24.51-22.19-37-30.6-6.85-5.11-9.16-5.43-10.36-8.65a8.79,8.79,0,0,1-.37-4.87c1-4.7,5.06-7.91,10.53-8,5.8-.08,8.27,8.44,10.45,15.09a9.8,9.8,0,0,0,8.65,6.7c22.51,1.5,19.91-38.36-17.92-37.53-10.19-.5-21.48,3.42-28.08,10.82a23.1,23.1,0,0,1,.08,4.64c-.34,6.24-2.22,12.47-4.37,18.57,5.16,12.65,24.26,23.22,30,35.09,2.46,4.51,4.53,10.13.24,14-7.86,6-12.58.62-15.79-6a9.64,9.64,0,0,0-2.94-3.58,16.58,16.58,0,0,0-8.33-3.2,9.7,9.7,0,0,0-9.35,5.55c.55,4.46,1.29,9.26,2.06,14.2,2.66,17.08,5.6,36,1.68,51.41,6.51,11.93,17.36,20.55,33.41,20.45C269.86,163.56,278.67,101.9,262.29,69.75Z"/><path class="cls-1" d="M79.06,17.2a8.5,8.5,0,0,1,.39,1.37C82.25,32,73.82,40.31,65.93,50.45c-3.57,2,17.17,21.73,17.63,23.44C89.08,82.36,93.49,89.64,97,99.54c8.1,20,13.34,72.09-23.18,63.58-11-2.56-13-14.56-15-23.56-2.59-11.7-2.44-22.18-2.94-33.66-.82-9.15-1.59-20.55-5-28.15a9.59,9.59,0,0,0-3-3.88c-8.87-6.39-6.69,23.5-5.27,30.87l.09.57c2,15,4.31,30.14-.06,45.84-2.42,12.47-19.51,18.8-30.54,9.48C4.59,154.69,3.29,145.17,3,135.2c-.41-15.67,6.71-32.79,8.85-47.09,3.58-24.7,3-50.41-11.19-71.26C-7.6-1,68.82-9.92,79.06,17.2ZM34.68,23.91l3.48,19.48c1.28,3.91,4.76,1.2,6.61-1.14a9.43,9.43,0,0,0,1.1-1.8c1.29-2.75,3.32-7.26,3.05-10C50.13,20,34.82,17.44,34.68,23.91Z"/><path class="cls-1" d="M153.49,4.66A22.7,22.7,0,0,0,150.66,7c-5.8,5.54-3.94,11.65-1.53,26,2.55,14,4.73,32.77,2.8,44.34-1.29,13.91-27.2,13.14-26-1.63.56-9.93,2.55-30,4.68-41.51,2.1-9.83,3.92-20.48-3.22-28.22a8,8,0,0,0-1.27-1.13c-9.56-6.81-29.71-7-35.39,4.81C87.43,15,97.74,36,98.63,41.39c2.44,10.43,1.54,15.62.44,26.52,0,.2,0,.41-.08.62-.47,2.82-1,5.72-1.56,8.67a108.33,108.33,0,0,1,9,18.78c3.43,8.57,5.81,20.16,6.38,31,.43,8.3-.07,19.38-4.14,28.76,7.31,4.32,17.46,7,31.38,7.27.3,0,2.6,0,2.9,0,16-.48,28-1.48,34.69-12.54.22-.35.47-.67.69-1,12.57-20.92-2.28-61.83-1.4-85.34a7.85,7.85,0,0,0,0-.84c-1-15.42,10.71-32.47,11.38-46.64C189.87.05,160.86-.44,153.49,4.66Z"/></g></g></svg>