<svg width="24" height="24" viewBox="0 0 24 24" fill="none" xmlns="http://www.w3.org/2000/svg">
<g clip-path="url(#clip0_277_160)">
<path d="M12.1681 24.0002C10.958 23.9334 10.4874 23.2649 10.2185 22.3958C8.7395 18.1841 5.98319 15.2426 1.68067 13.8387C0.806723 13.5713 0 13.0365 0 11.9C0 10.7635 0.806723 10.3624 1.7479 10.0949C5.84874 8.69105 8.60504 5.9501 10.0168 1.87211C10.3529 0.936173 10.7563 -0.0666128 12.0336 0.000239594C13.2437 0.000239594 13.6471 1.06988 13.9832 2.00581C15.395 6.01695 18.1513 8.6242 22.1176 10.0281C23.0588 10.3624 24.0672 10.6966 24 11.9668C23.9328 13.237 22.9916 13.5713 22.0504 13.9055C18.084 15.2426 15.5294 17.9835 14.0504 21.7941C13.6471 22.7969 13.3109 23.8665 12.1681 24.0002Z" fill="#FE6F34"/>
</g>
<defs>
<clipPath id="clip0_277_160">
<rect width="24" height="24" fill="white"/>
</clipPath>
</defs>
</svg>
